<svg 
 xmlns="http://www.w3.org/2000/svg"
 xmlns:xlink="http://www.w3.org/1999/xlink"
 width="395.5px" height="395.5px">
<path fill-rule="evenodd"  stroke="rgb(32, 32, 32)" stroke-width="5px" stroke-linecap="butt" stroke-linejoin="round" fill="rgb(255, 255, 255)"
 d="M334.371,250.029 C334.371,309.016 334.371,340.271 334.371,340.271 C334.371,340.271 334.102,387.491 387.490,387.491 L373.928,387.491 L286.903,387.491 C286.903,387.491 232.654,386.824 232.654,335.024 C232.654,283.225 232.654,241.634 232.654,241.634 C232.654,241.634 227.497,198.913 180.500,196.500 C180.500,196.500 182.577,196.292 185.897,195.538 C184.788,195.497 183.660,195.479 182.498,195.501 C182.413,194.990 200.767,193.564 215.294,180.677 C224.857,171.935 232.654,158.462 232.654,137.751 C232.654,84.182 232.654,60.101 232.654,60.101 C232.654,60.101 237.572,5.536 181.795,5.536 L277.862,5.536 C277.862,5.536 335.325,2.429 335.325,54.260 C335.325,122.871 335.325,139.574 335.325,142.998 C335.330,142.997 338.848,182.690 294.724,192.413 C289.647,193.762 283.931,194.755 277.513,195.300 C293.874,196.996 334.371,204.672 334.371,250.029 Z"/>
<path fill-rule="evenodd"  stroke="rgb(32, 32, 32)" stroke-width="5px" stroke-linecap="butt" stroke-linejoin="round" opacity="0.6" fill="rgb(255, 255, 255)"
 d="M334.299,52.721 C334.299,52.721 334.299,83.973 334.299,142.955 C334.299,175.224 315.434,187.903 298.346,192.768 C293.521,194.379 288.741,195.428 284.388,196.104 C344.038,202.181 335.253,249.977 335.253,249.977 C335.253,253.401 335.253,270.102 335.253,338.707 C335.253,339.039 335.264,339.359 335.268,339.687 C335.418,344.888 336.700,350.631 337.580,356.278 C345.629,383.667 372.362,387.115 381.850,387.459 L300.232,387.459 C251.973,387.459 237.879,369.734 233.965,344.622 C233.057,340.138 232.581,335.330 232.581,330.181 C232.581,328.723 232.580,327.307 232.580,325.909 C232.552,324.235 232.541,322.544 232.541,320.837 C232.541,305.798 232.495,285.531 232.466,270.828 C232.452,265.577 232.443,260.507 232.443,255.223 C232.443,201.658 181.515,195.417 181.515,195.417 C201.076,194.414 213.170,186.630 220.630,177.877 C230.543,165.587 232.443,151.349 232.443,151.349 C232.443,151.349 232.443,109.762 232.443,57.967 C232.443,6.172 286.766,5.505 286.766,5.505 L373.910,5.505 L387.490,5.505 C334.029,5.505 334.299,52.721 334.299,52.721 ZM381.850,387.459 L385.227,387.460 C385.227,387.460 383.966,387.536 381.850,387.459 Z"/>
<path fill-rule="evenodd"  stroke="rgb(32, 32, 32)" stroke-width="5px" stroke-linecap="butt" stroke-linejoin="miter" fill="rgb(255, 255, 255)"
 d="M5.353,5.411 L5.353,387.616 L139.753,387.649 C139.753,387.649 4.638,197.589 137.513,5.378 L5.353,5.411 Z"/>
</svg>